<mxfile host="app.diagrams.net" modified="2024-05-21T01:53:30.950Z" agent="Mozilla/5.0 (Windows NT 10.0; Win64; x64) AppleWebKit/537.36 (KHTML, like Gecko) Chrome/125.0.0.0 Safari/537.36" version="24.4.4" etag="miodnWJ9HCv7XO9c0mQ1" type="github">
  <diagram name="페이지-1" id="SyQ9I8m1gc3xXC5VnsHK">
    <mxGraphModel>
      <root>
        <mxCell id="0" />
        <mxCell id="1" parent="0" />
      </root>
    </mxGraphModel>
  </diagram>
</mxfile>
